<svg xmlns="http://www.w3.org/2000/svg" width="456" height="365" viewBox="0 0 456 365">
  <g fill="none" fill-rule="evenodd">
    <path fill="#FEFEFE" d="M237.304842,284.440025 C241.498185,284.449275 247.0955,284.692175 247.0955,290.049 L247.0955,338.299 C247.0955,342.655 248.9945,348.69 254.5985,348.69 C260.2025,348.69 265.2895,345.363 265.2895,338.563 L265.2895,301.592 C265.2895,290.8 260.8085,291.493 260.8085,287.622 C260.8085,285.935 261.9945,284.453 263.7565,284.453 L286.4165,284.453 C292.2385,284.453 294.0935,286.052 294.0935,288.158 L294.0935,347.738 C294.0935,355.532 299.0655,357.023 299.0655,360.616 C299.0655,362.83 296.7195,362.979 296.7195,362.979 L273.8055,362.979 C266.9195,362.979 267.9985,356.182 267.9985,356.182 L267.9703,356.209896 C267.419279,356.749284 258.806214,364.93 243.2805,364.93 C223.8005,364.93 217.9865,351.701 217.9865,344.938 L217.9865,298.634 C217.9865,290.692 214.1475,290.605 214.1475,287.622 C214.1475,285.977 215.5155,284.439845 217.4435,284.439845 L237.304842,284.440025 Z M332.016962,267.383062 L332.0207,267.5899 L332.0207,284.4469 C335.733315,284.452438 340.931091,284.462237 342.664411,284.463712 L343.0227,284.4639 C345.3737,284.4639 346.4797,287.1609 346.4797,289.7399 C346.4797,292.244018 345.437802,294.504147 343.226914,294.634929 L343.0227,294.6409 L332.0207,294.6409 L332.0207,341.0459 C332.0207,344.4789 333.7087,347.6539 337.1777,347.6539 C339.9277,347.6539 339.8127,346.6849 341.9037,346.6849 C344.4847,346.6849 344.6277,350.2869 342.2457,354.3649 C338.4747,360.8139 332.7627,364.7069 322.9617,364.7069 C310.450367,364.7069 303.686147,356.062222 303.550773,342.711075 L303.5487,342.3009 L303.5487,295.0049 C294.9467,294.9529 295.8057,288.6409 299.1267,286.2079 C302.4617,283.7659 322.9957,268.3669 326.2127,265.9179 C328.703876,264.023782 331.892861,264.003944 332.016962,267.383062 Z M350.9863,351.4923 C354.1993,351.4923 356.8453,354.1403 356.8453,357.3523 C356.8453,360.5653 354.1993,363.2113 350.9863,363.2113 C347.7723,363.2113 345.1263,360.5653 345.1263,357.3523 C345.1263,354.1403 347.7723,351.4923 350.9863,351.4923 Z M151.319576,241.656375 C151.84039,241.66424 155.9201,241.848732 155.9201,245.6992 C155.9201,248.222652 151.346903,250.961471 151.129132,256.470146 L151.1211,256.8782 L151.1211,291.9972 C155.5741,290.9332 159.1851,290.2252 161.5531,290.2252 C166.4841,290.2252 170.5821,292.0262 173.2931,293.6612 L173.29343,291.573393 C173.29531,279.575758 173.296761,268.781048 173.297518,262.931345 L173.2981,258.3332 C173.2981,248.8952 167.7491,247.8282 167.7491,244.7742 C167.7491,242.933379 169.238715,241.748099 170.421978,241.665784 L170.5521,241.6612 L211.800093,241.660789 C211.935457,241.650313 214.7781,241.471414 214.7781,244.9242 C214.7781,247.306639 209.379409,252.456954 209.116058,257.034045 L209.1061,257.3762 L209.0941,347.8132 C209.0941,353.5962 213.8931,356.4052 213.8931,358.9912 C213.8931,362.842604 209.81339,363.026196 209.292576,363.033941 L207.940358,363.033718 C203.207273,363.032048 186.639747,363.026333 176.870384,363.024662 L172.4521,363.0242 C170.1171,363.0242 168.5001,361.8952 168.5001,359.7942 C168.5001,356.0712 173.2861,356.0712 173.2861,347.8132 L173.28649,342.897641 C173.287146,336.829884 173.288591,326.441083 173.29052,314.979658 L173.2911,311.5852 C172.7481,308.0572 170.4751,302.5692 161.5531,302.5692 C158.82375,302.5692 155.481603,303.169362 151.71871,304.155344 L151.1211,304.3142 L151.1211,346.3572 C151.1211,355.7962 156.6701,356.8622 156.6701,359.9162 C156.6701,361.757021 155.181415,362.942301 153.998218,363.024616 L153.8681,363.0292 L112.619107,363.029613 C112.483743,363.040134 109.6411,363.219986 109.6411,359.7672 C109.6411,357.383785 115.040743,352.234398 115.30414,347.656424 L115.3141,347.3142 L115.3141,316.6932 C104.9831,320.1812 94.8741,322.9422 86.7521,322.9422 C57.9241,322.9422 58.2651,290.1432 64.3791,290.1432 C67.4601,290.1432 73.2821,301.8932 97.5551,301.8932 C102.909163,301.8932 108.547112,301.321032 114.186324,300.435424 L115.3141,300.2542 L115.3141,256.8782 C115.3141,248.6192 110.5271,248.6192 110.5271,244.8972 C110.5271,242.7962 112.1441,241.6652 114.4801,241.6652 L118.928529,241.664775 C128.280998,241.663315 143.82929,241.658501 149.29331,241.65676 L149.558032,241.656676 L151.319576,241.656375 Z M350.9863,352.6653 C348.3783,352.6653 346.3363,354.7813 346.3363,357.3523 C346.3363,359.9223 348.3783,362.0393 350.9863,362.0393 C353.5943,362.0393 355.5983,359.9223 355.5983,357.3523 C355.5983,354.7813 353.5943,352.6653 350.9863,352.6653 Z M351.6283,354.3293 C352.9523,354.3293 353.6703,355.1593 353.6703,356.2563 C353.6703,357.2383 353.0643,357.9953 352.0443,358.1453 L353.4803,360.1863 L352.1193,360.1863 L350.1913,357.2003 L350.9473,357.2003 C351.8173,357.2003 352.4233,357.0503 352.4233,356.2943 C352.4233,355.5373 351.8173,355.4623 350.9863,355.4623 L350.0793,355.4623 L350.0793,360.1863 L348.8693,360.1863 L348.8693,354.3293 L351.6283,354.3293 Z M333.4911,150.726 C336.3051,150.726 338.5861,153.007 338.5861,155.821 C338.5861,158.366 331.7401,167.874 330.6831,169.506 C328.8981,172.26 298.1201,219.752 298.1201,219.752 C320.0071,219.752 326.4261,234.511 343.7811,234.511 C351.5311,234.511 351.6841,232.33 355.6201,232.33 C357.2641,232.33 358.5751,233.281 358.5751,235.065 C358.5751,238.211 347.1981,251.643 331.4061,251.645 C312.6121,251.647 303.0981,229.139 279.7121,229.135 L265.9241,229.135 C262.4331,229.135 260.3421,225.255 262.2621,222.339 L300.8081,163.793 C301.3121,163.029 300.7391,162.016 299.8241,162.033 C290.3201,162.209 286.4261,163.602 283.1841,166.118 C276.7021,171.148 275.4131,181.51 271.0561,181.51 C268.6201,181.51 267.6911,179.947 267.6911,177.209 L267.6911,156.153 C267.6911,152.615 268.6491,150.726 271.9111,150.726 L333.4911,150.726 Z M157.58577,150.750623 L157.741,150.7513 L182.354,150.7513 C185.32278,150.7513 186.614464,152.543567 186.675707,156.303605 L186.678,156.5893 L186.678,214.0973 C186.678,217.9746 187.74607,220.19513 188.947298,221.676639 L189.072,221.8273 L227.281,163.7933 C227.784,163.0293 227.212,162.0163 226.297,162.0333 C216.794,162.2093 212.899,163.6013 209.657,166.1183 C203.176,171.1483 201.886,181.5103 197.529,181.5103 C195.166818,181.5103 194.222627,180.039652 194.167573,177.454876 L194.165,177.2093 L194.165,156.1533 C194.165,152.701593 195.075886,150.818421 198.149411,150.728612 L198.384,150.725242 L259.964,150.725242 C262.779,150.725242 265.059,153.0063 265.059,155.8203 C265.059,158.3663 258.214,167.8733 257.156,169.5053 C255.42455,172.17765 226.413586,216.943043 224.674487,219.626562 L224.593,219.7523 C246.48,219.7523 252.9,234.5113 270.255,234.5113 C278.005,234.5113 278.156,232.3303 282.093,232.3303 C283.737,232.3303 285.049,233.2813 285.049,235.0643 C285.049,238.2113 273.671,251.6423 257.879,251.6443 C239.276776,251.64628 229.76613,229.596283 206.896589,229.142404 L206.185,229.1353 L192.397,229.1353 C191.768,229.1353 191.206,228.9753 190.684,228.7513 C190.0148,229.1097 189.366507,229.132722 189.283042,229.134199 L154.931,229.1343 C154.931,229.1343 152.06,228.1583 152.06,225.6423 C152.06,220.5953 157.661,222.0473 157.661,212.9513 L157.660711,211.809522 C157.65531,200.461964 157.575982,173.54916 157.56943,166.551814 L157.569,165.7603 C157.569,157.8793 152.628,156.5033 152.628,153.3043 C152.628,150.352936 155.348972,150.731874 157.58577,150.750623 Z M117.2265,130.2293 C144.8925,130.2293 151.6215,152.8013 151.6215,168.7983 C151.6215,197.0563 131.7475,210.7683 115.3545,210.7683 C106.5615,210.7683 97.4025,206.0493 97.4025,201.3043 C97.4025,200.8133 97.7855,199.7893 98.8215,199.3223 C101.5775,198.0823 116.6535,193.3123 116.3675,169.2583 C116.1405,150.1133 109.4005,141.3153 102.4895,141.3153 C96.8975,141.3153 94.7925,144.3233 94.7925,153.1123 L94.7916956,153.988798 C94.7745336,164.993604 94.4885,225.35523 94.4885,235.9583 C94.4885,240.6183 100.2555,245.9703 100.1605,248.4093 C100.05077,251.263219 97.479408,251.4148 97.2017435,251.422849 L55.9345,251.4233 C54.7335,251.4233 53.1315,250.4693 53.1315,248.5593 C53.1315,245.5063 58.6805,244.4393 58.6805,235.0013 L58.6805,145.5213 C58.6805,139.1643 53.8825,137.3303 53.8825,134.3423 C53.8825,131.9423 55.1125,130.3003 57.3475,130.3003 L59.8353969,130.299785 C76.87753,130.293377 117.2265,130.2293 117.2265,130.2293 Z M372.667,149.3159 C390.26722,149.3159 405.22117,155.545416 405.518489,168.876746 L405.523,169.2829 L405.523,206.1129 C405.523,221.8179 413.342,214.8639 413.342,219.3719 C413.342,222.3529 409.016,230.0499 396.215,230.0499 C387.658,230.0499 382.574,225.6339 380.462,223.2649 C379.798,222.5199 378.672,222.4679 377.909,223.1129 C375.112,225.4769 368.196,230.2169 357.707,230.2169 C341.783,230.2169 331.082,220.0979 331.082,207.9749 C331.082,194.9929 337.521,186.7389 355.633,182.6119 C367.971,179.8009 377.529,177.9119 377.529,168.9699 C377.529,163.5789 372.752,160.1639 368.586,160.1639 C365.379,160.1639 361.126,162.0189 359.185,168.3969 C358.061,172.0909 354.063,177.4429 347.905,177.4429 C342.679,177.4429 337.675,173.3739 337.675,167.2119 C337.675,154.1819 355.519,149.3159 372.667,149.3159 Z M375.307,188.3219 C373.786,188.8019 360.565,195.2499 360.565,205.4729 C360.565,211.3859 365.721,214.4029 369.343,214.4029 C374.230143,214.4029 378.27808,210.773093 378.42109,205.748347 L378.425,205.4729 L378.425,188.3219 C378.425,187.0819 377.556,187.6119 375.307,188.3219 Z M170.6975,119.7787 C181.5995,119.7787 188.0045,125.8287 188.0045,133.5997 C188.0045,141.3717 181.5995,147.4207 170.6975,147.4207 C159.7955,147.4207 153.3905,141.3717 153.3905,133.5997 C153.3905,125.8287 159.7955,119.7787 170.6975,119.7787 Z"/>
    <polygon fill="#DF393E" points="455.632 110.573 455.631 104.748 340.468 55.098 318.112 0 137.519 0 115.163 55.098 .001 104.748 0 110.573"/>
  </g>
</svg>
